<svg width="73" height="13" viewBox="0 0 73 13" fill="none" xmlns="http://www.w3.org/2000/svg">
<path d="M7.351 5.66733C8.17082 5.26713 8.63538 4.57001 8.63538 3.70506C8.63538 2.31082 7.40566 1.3426 4.89156 1.3426H0V10.3793H5.16483C7.73358 10.3793 9.09994 9.46276 9.09994 7.90069C9.09994 6.80338 8.43043 6.0288 7.351 5.66733ZM4.53631 3.18868C5.4381 3.18868 5.90266 3.4856 5.90266 4.05362C5.90266 4.63456 5.4381 4.93148 4.53631 4.93148H2.67806V3.18868H4.53631ZM4.94621 8.53327H2.67806V6.7001H4.94621C5.87534 6.7001 6.36723 6.99702 6.36723 7.61668C6.36723 8.23635 5.87534 8.53327 4.94621 8.53327Z" fill="#515151"/>
<path d="M12.4961 2.60775C13.4525 2.60775 14.0811 2.03972 14.0811 1.26514C14.0811 0.529295 13.4525 0 12.4961 0C11.5396 0 10.9111 0.568024 10.9111 1.30387C10.9111 2.03972 11.5396 2.60775 12.4961 2.60775ZM11.198 10.3793H13.7941V3.38232H11.198V10.3793Z" fill="#515151"/>
<path d="M21.7938 3.38232V4.23436C21.2883 3.57597 20.4958 3.26614 19.471 3.26614C17.5035 3.26614 15.8365 4.58292 15.8365 6.63555C15.8365 8.70109 17.5035 10.0179 19.471 10.0179C20.4138 10.0179 21.1653 9.74677 21.6709 9.19166V9.42403C21.6709 10.5214 21.0833 11.1152 19.6896 11.1152C18.8152 11.1152 17.8041 10.8312 17.1892 10.3664L16.2464 12.0834C17.1482 12.6902 18.5009 13 19.9219 13C22.682 13 24.2669 11.7478 24.2669 9.10129V3.38232H21.7938ZM20.0859 8.06852C19.1568 8.06852 18.4599 7.48759 18.4599 6.63555C18.4599 5.78352 19.1568 5.21549 20.0859 5.21549C21.015 5.21549 21.6982 5.78352 21.6982 6.63555C21.6982 7.48759 21.015 8.06852 20.0859 8.06852Z" fill="#515151"/>
<path d="M34.9941 10.5343C37.7268 10.5343 39.0522 9.2433 39.0522 7.73287C39.0522 4.41509 33.4911 5.56405 33.4911 3.89871C33.4911 3.33069 33.9967 2.86594 35.3084 2.86594C36.1555 2.86594 37.071 3.09831 37.9591 3.57597L38.6423 1.98808C37.7542 1.45879 36.5244 1.18769 35.322 1.18769C32.603 1.18769 31.2913 2.46574 31.2913 4.00199C31.2913 7.35849 36.8524 6.19662 36.8524 7.88779C36.8524 8.4429 36.3195 8.85601 35.0078 8.85601C33.86 8.85601 32.6577 8.46872 31.8515 7.91361L31.1 9.48858C31.9471 10.1082 33.4775 10.5343 34.9941 10.5343Z" fill="#515151"/>
<path d="M45.7022 3.33069C44.7594 3.33069 43.9396 3.6147 43.3657 4.1569V0.800397H41.2342V10.3793H43.3657V6.94538C43.3657 5.66733 44.1036 5.07349 45.1283 5.07349C46.0711 5.07349 46.6177 5.58987 46.6177 6.71301V10.3793H48.7492V6.40318C48.7492 4.286 47.4375 3.33069 45.7022 3.33069Z" fill="#515151"/>
<path d="M55.079 10.4826C57.4155 10.4826 59.1098 8.99801 59.1098 6.90665C59.1098 4.81529 57.4155 3.33069 55.079 3.33069C52.7426 3.33069 51.0346 4.81529 51.0346 6.90665C51.0346 8.99801 52.7426 10.4826 55.079 10.4826ZM55.079 8.83019C54.0133 8.83019 53.1935 8.10725 53.1935 6.90665C53.1935 5.70606 54.0133 4.98312 55.079 4.98312C56.1448 4.98312 56.951 5.70606 56.951 6.90665C56.951 8.10725 56.1448 8.83019 55.079 8.83019Z" fill="#515151"/>
<path d="M63.3902 4.35055V3.43396H61.3544V10.3793H63.4859V7.1003C63.4859 5.77061 64.2647 5.16385 65.4398 5.16385C65.6037 5.16385 65.7404 5.17676 65.918 5.18967V3.33069C64.7839 3.33069 63.9095 3.67924 63.3902 4.35055Z" fill="#515151"/>
<path d="M72.4261 8.62363C72.1938 8.79146 71.8796 8.88183 71.5653 8.88183C70.9915 8.88183 70.6499 8.55909 70.6499 7.96524V5.13803H72.4808V3.58888H70.6499V1.89772H68.5183V3.58888H67.3843V5.13803H68.5183V7.99106C68.5183 9.6435 69.5295 10.4826 71.2647 10.4826C71.9206 10.4826 72.5628 10.3406 73 10.0437L72.4261 8.62363Z" fill="#515151"/>
</svg>
