<svg width="19" height="14" viewBox="0 0 19 14" fill="none" xmlns="http://www.w3.org/2000/svg">
<path d="M10.45 3.9375H8.55V2.1875H10.45V3.9375ZM10.45 7.875H8.55V6.125H10.45V7.875ZM10.45 11.8125H8.55V10.0625H10.45V11.8125ZM19 5.25V1.75C19 0.77875 18.145 0 17.1 0H1.9C1.39609 0 0.912816 0.184374 0.556497 0.512563C0.200178 0.840752 0 1.28587 0 1.75V5.25C1.0545 5.25 1.9 6.0375 1.9 7C1.9 7.46413 1.69982 7.90925 1.3435 8.23744C0.987184 8.56563 0.503911 8.75 0 8.75V12.25C0 12.7141 0.200178 13.1592 0.556497 13.4874C0.912816 13.8156 1.39609 14 1.9 14H17.1C17.6039 14 18.0872 13.8156 18.4435 13.4874C18.7998 13.1592 19 12.7141 19 12.25V8.75C18.4961 8.75 18.0128 8.56563 17.6565 8.23744C17.3002 7.90925 17.1 7.46413 17.1 7C17.1 6.53587 17.3002 6.09075 17.6565 5.76256C18.0128 5.43437 18.4961 5.25 19 5.25Z" fill="white"/>
</svg>
