<svg width="150" height="29" viewBox="0 0 150 29" fill="none" xmlns="http://www.w3.org/2000/svg">
<path d="M16.2757 12.752C18.0677 11.856 18.9917 10.344 18.9917 8.52396C18.9917 5.55596 16.4717 3.39996 11.0677 3.39996H0.595703V23H11.6277C17.0317 23 19.9157 21.012 19.9157 17.596C19.9157 15.272 18.5717 13.592 16.2757 12.752ZM10.1717 8.01996C11.6557 8.01996 12.3277 8.52396 12.3277 9.47596C12.3277 10.428 11.6557 10.932 10.1717 10.932H7.0917V8.01996H10.1717ZM11.0677 18.38H7.0917V15.3H11.0677C12.5237 15.3 13.2517 15.832 13.2517 16.84C13.2517 17.848 12.5237 18.38 11.0677 18.38Z" fill="black"/>
<path d="M26.9 6.45196C29.224 6.45196 30.708 5.05196 30.708 3.11996C30.708 1.29996 29.224 0.0119629 26.9 0.0119629C24.576 0.0119629 23.092 1.41196 23.092 3.23196C23.092 5.05196 24.576 6.45196 26.9 6.45196ZM23.736 23H30.064V7.68396H23.736V23Z" fill="black"/>
<path d="M45.6368 7.68396V9.41996C44.6848 8.04796 43.2008 7.40396 41.1008 7.40396C37.2088 7.40396 33.7368 10.232 33.7368 14.768C33.7368 19.304 37.2088 22.16 41.1008 22.16C42.9768 22.16 44.3768 21.628 45.3288 20.536V20.816C45.3288 22.86 44.2928 24.008 41.6888 24.008C40.0368 24.008 37.9928 23.42 36.7888 22.496L34.6608 26.808C36.5648 28.068 39.3088 28.712 42.3328 28.712C48.1848 28.712 51.6568 25.884 51.6568 19.948V7.68396H45.6368ZM42.7808 17.232C41.2968 17.232 40.1488 16.252 40.1488 14.768C40.1488 13.284 41.2968 12.332 42.7808 12.332C44.2648 12.332 45.3848 13.284 45.3848 14.768C45.3848 16.252 44.2648 17.232 42.7808 17.232Z" fill="black"/>
<path d="M73.5175 23.28C78.8935 23.28 81.4416 20.592 81.4416 17.456C81.4416 10.26 69.8215 12.976 69.8215 8.80396C69.8215 7.31996 71.0535 6.14396 74.0775 6.14396C75.7855 6.14396 77.7176 6.64796 79.4816 7.68396L80.6295 4.85596C78.9215 3.73596 76.4575 3.11996 74.1055 3.11996C68.7295 3.11996 66.2095 5.80796 66.2095 8.97196C66.2095 16.252 77.8576 13.48 77.8576 17.708C77.8576 19.164 76.5695 20.256 73.5175 20.256C71.1096 20.256 68.6175 19.36 67.0495 18.1L65.7896 20.928C67.4136 22.328 70.4655 23.28 73.5175 23.28Z" fill="black"/>
<path d="M94.8789 7.87996C92.8069 7.87996 91.0429 8.55196 89.8949 9.78396V2.22396H86.3949V23H89.8949V15.44C89.8949 12.444 91.5749 10.932 94.0669 10.932C96.3069 10.932 97.6229 12.22 97.6229 14.88V23H101.123V14.432C101.123 9.92396 98.4629 7.87996 94.8789 7.87996Z" fill="black"/>
<path d="M114.1 23.196C118.748 23.196 122.08 20.004 122.08 15.524C122.08 11.044 118.748 7.87996 114.1 7.87996C109.508 7.87996 106.148 11.044 106.148 15.524C106.148 20.004 109.508 23.196 114.1 23.196ZM114.1 20.2C111.58 20.2 109.676 18.38 109.676 15.524C109.676 12.668 111.58 10.848 114.1 10.848C116.648 10.848 118.552 12.668 118.552 15.524C118.552 18.38 116.648 20.2 114.1 20.2Z" fill="black"/>
<path d="M130.438 10.232V8.04796H127.106V23H130.606V15.748C130.606 12.696 132.286 11.128 134.946 11.128C135.198 11.128 135.451 11.156 135.758 11.212V7.87996C133.266 7.87996 131.446 8.66396 130.438 10.232Z" fill="black"/>
<path d="M148.962 19.696C148.43 20.116 147.73 20.312 147.002 20.312C145.658 20.312 144.93 19.528 144.93 18.072V10.96H148.934V8.15996H144.93V4.74396H141.43V8.15996H138.966V10.96H141.43V18.156C141.43 21.46 143.306 23.196 146.582 23.196C147.842 23.196 149.102 22.86 149.942 22.188L148.962 19.696Z" fill="black"/>
</svg>
