<svg width="22" height="22" viewBox="0 0 22 22" fill="none" xmlns="http://www.w3.org/2000/svg">
<g clip-path="url(#clip0)">
<path d="M20.4761 17.2547C19.7261 18.9938 18.2976 19.6149 16.6666 18.9192C16.3214 18.7702 16.1309 18.795 15.8452 19.0435C15.4285 19.4037 14.9285 19.677 14.4404 20C14.5833 20.1988 14.7619 20.4099 14.8928 20.646C15.1428 21.0932 15.119 21.5279 14.6904 21.8509C14.3452 22.1118 13.8571 22 13.5595 21.5776C12.9999 20.795 12.119 20.795 11.3452 20.7578C10.5714 20.7081 9.78566 20.9317 9.01185 21.1056C8.78566 21.1553 8.58328 21.3789 8.41661 21.5652C8.04757 21.9876 7.59519 22.1118 7.22614 21.8385C6.83328 21.5528 6.79757 21.031 7.1309 20.5217C7.24995 20.3478 7.3809 20.1988 7.49995 20.0373C6.92852 19.6149 6.36899 19.1925 5.78566 18.7826C5.70233 18.7329 5.52376 18.8074 5.40471 18.8571C3.619 19.5776 2.3928 19.1056 1.46423 17.3043C2.44042 16.5963 3.97614 16.2609 5.21423 17.6397C5.30947 17.0062 5.27376 16.236 5.57138 15.6273C5.869 15.0062 6.49995 14.5466 6.99995 14.0124C7.83328 15.0932 7.83328 16.4348 7.09519 17.6273C8.77376 19.2422 12.9285 19.3665 14.9047 17.6397C14.0119 16.4969 14.2261 15.3292 14.7976 14.1242C16.369 14.8944 16.8928 15.9627 16.5714 17.8882C17.738 16.4224 19.0476 16.4845 20.4761 17.2547Z" fill="black"/>
<path d="M13.7856 5.29193C15.1547 4.08696 16.1666 4.02485 17.7856 5.09317C16.9642 3.36646 17.5475 2.13665 18.7737 1.08075C20.0714 2.54659 19.9523 4.33541 18.5237 5.60249C16.7737 7.16771 15.1309 7.06833 13.7856 5.29193Z" fill="black"/>
<path d="M0 12.4224C1.41667 12.1615 2.63095 12.4224 3.44048 14.0497C3.5 12.236 4.42857 11.3913 5.85714 10.9938C6.29762 11.764 6.10714 13.4286 5.47619 14.087C4.54762 15.0683 2.85714 15.5031 1.64286 15.0062C0.714286 14.6211 0.0238095 13.5528 0 12.4224Z" fill="black"/>
<path d="M16.0119 11.0311C17.3809 11.1553 18.3571 12.2609 18.4642 13.7516C18.9404 13.354 19.4166 12.795 19.9999 12.5466C20.5833 12.2981 21.2976 12.3727 22 12.2981C21.6428 14.5839 20.1904 15.6149 18.238 15.118C16.2738 14.6211 15.4166 13.0435 16.0119 11.0311Z" fill="black"/>
<path d="M4.23812 5.01863C5.79764 4.03727 6.9405 4.1118 8.08335 5.2795C7.05954 6.95652 5.32145 7.1677 3.64288 5.81366C1.97621 4.48447 1.76193 2.67081 3.09526 1.13043C4.39288 2.02484 4.66669 2.93168 4.23812 5.01863Z" fill="black"/>
<path d="M6.4762 8.09937C6.10715 9.27949 5.59525 10.2733 4.40477 10.5093C3.00001 10.795 1.71429 10.4099 0.797626 9.18012C0.0714352 8.21117 0.273816 7.13043 0.60715 6.0621C2.15477 6.62111 2.75001 7.46583 2.85715 9.29192C3.75001 7.78881 5.01191 7.70185 6.4762 8.09937Z" fill="black"/>
<path d="M15.4406 8.11181C16.9167 7.68945 18.1906 7.80125 19.1191 9.27951C18.9525 7.52796 19.9048 6.65839 21.2977 6.0497C21.6667 7.09318 21.8453 8.12423 21.2144 9.06833C20.3215 10.3851 19.012 10.795 17.5477 10.5217C16.3215 10.2733 15.8096 9.25467 15.4406 8.11181Z" fill="black"/>
<path d="M5.4048 3.3913C5.1548 1.40372 6.54766 -0.161494 8.41671 0.0124195C8.78575 1.96273 7.28575 3.63975 5.4048 3.3913Z" fill="black"/>
<path d="M16.5 3.3913C14.3215 3.51552 13.25 1.8385 13.4762 0.0496829C15.25 -0.322988 16.7738 1.36645 16.5 3.3913Z" fill="black"/>
</g>
<defs>
<clipPath id="clip0">
<rect width="22" height="22" fill="white"/>
</clipPath>
</defs>
</svg>
