<svg width="279" height="26" viewBox="0 0 279 26" fill="none" xmlns="http://www.w3.org/2000/svg">
<path d="M12.9252 10.9C13.9252 11.2167 14.7085 11.75 15.2752 12.5C15.8419 13.2333 16.1252 14.1417 16.1252 15.225C16.1252 16.7583 15.5252 17.9417 14.3252 18.775C13.1419 19.5917 11.4085 20 9.1252 20H0.0751953V2.50001H8.6252C10.7585 2.50001 12.3919 2.90835 13.5252 3.72501C14.6752 4.54168 15.2502 5.65001 15.2502 7.05001C15.2502 7.90001 15.0419 8.65835 14.6252 9.32501C14.2252 9.99168 13.6585 10.5167 12.9252 10.9ZM4.1002 5.55001V9.67501H8.1252C9.1252 9.67501 9.88353 9.50001 10.4002 9.15001C10.9169 8.80001 11.1752 8.28335 11.1752 7.60001C11.1752 6.91668 10.9169 6.40835 10.4002 6.07501C9.88353 5.72501 9.1252 5.55001 8.1252 5.55001H4.1002ZM8.8252 16.95C9.89186 16.95 10.6919 16.775 11.2252 16.425C11.7752 16.075 12.0502 15.5333 12.0502 14.8C12.0502 13.35 10.9752 12.625 8.8252 12.625H4.1002V16.95H8.8252Z" fill="white"/>
<path d="M18.9164 6.55001H22.8164V20H18.9164V6.55001ZM20.8664 4.67501C20.1497 4.67501 19.5664 4.46668 19.1164 4.05001C18.6664 3.63335 18.4414 3.11668 18.4414 2.50001C18.4414 1.88335 18.6664 1.36668 19.1164 0.950013C19.5664 0.533346 20.1497 0.325012 20.8664 0.325012C21.5831 0.325012 22.1664 0.525013 22.6164 0.925014C23.0664 1.32501 23.2914 1.82501 23.2914 2.42501C23.2914 3.07501 23.0664 3.61668 22.6164 4.05001C22.1664 4.46668 21.5831 4.67501 20.8664 4.67501Z" fill="white"/>
<path d="M40.3109 6.55001V17.75C40.3109 20.2167 39.6693 22.05 38.3859 23.25C37.1026 24.45 35.2276 25.05 32.7609 25.05C31.4609 25.05 30.2276 24.8917 29.0609 24.575C27.8943 24.2583 26.9276 23.8 26.1609 23.2L27.7109 20.4C28.2776 20.8667 28.9943 21.2333 29.8609 21.5C30.7276 21.7833 31.5943 21.925 32.4609 21.925C33.8109 21.925 34.8026 21.6167 35.4359 21C36.0859 20.4 36.4109 19.4833 36.4109 18.25V17.675C35.3943 18.7917 33.9776 19.35 32.1609 19.35C30.9276 19.35 29.7943 19.0833 28.7609 18.55C27.7443 18 26.9359 17.2333 26.3359 16.25C25.7359 15.2667 25.4359 14.1333 25.4359 12.85C25.4359 11.5667 25.7359 10.4333 26.3359 9.45001C26.9359 8.46668 27.7443 7.70835 28.7609 7.17501C29.7943 6.62501 30.9276 6.35001 32.1609 6.35001C34.1109 6.35001 35.5943 6.99168 36.6109 8.27501V6.55001H40.3109ZM32.9359 16.15C33.9693 16.15 34.8109 15.85 35.4609 15.25C36.1276 14.6333 36.4609 13.8333 36.4609 12.85C36.4609 11.8667 36.1276 11.075 35.4609 10.475C34.8109 9.85835 33.9693 9.55001 32.9359 9.55001C31.9026 9.55001 31.0526 9.85835 30.3859 10.475C29.7193 11.075 29.3859 11.8667 29.3859 12.85C29.3859 13.8333 29.7193 14.6333 30.3859 15.25C31.0526 15.85 31.9026 16.15 32.9359 16.15Z" fill="white"/>
<path d="M56.9459 20.2C55.6292 20.2 54.3542 20 53.1209 19.6C51.9042 19.1833 50.9459 18.65 50.2459 18L51.1709 16.05C51.8376 16.65 52.6876 17.1417 53.7209 17.525C54.7709 17.8917 55.8459 18.075 56.9459 18.075C58.3959 18.075 59.4792 17.8333 60.1959 17.35C60.9126 16.85 61.2709 16.1917 61.2709 15.375C61.2709 14.775 61.0709 14.2917 60.6709 13.925C60.2876 13.5417 59.8042 13.25 59.2209 13.05C58.6542 12.85 57.8459 12.625 56.7959 12.375C55.4792 12.0583 54.4126 11.7417 53.5959 11.425C52.7959 11.1083 52.1042 10.625 51.5209 9.97501C50.9542 9.30835 50.6709 8.41668 50.6709 7.30001C50.6709 6.36668 50.9126 5.52501 51.3959 4.77501C51.8959 4.02501 52.6459 3.42501 53.6459 2.97501C54.6459 2.52501 55.8876 2.30001 57.3709 2.30001C58.4042 2.30001 59.4209 2.43335 60.4209 2.70001C61.4209 2.96668 62.2792 3.35001 62.9959 3.85001L62.1709 5.85001C61.4376 5.38335 60.6542 5.03335 59.8209 4.80001C58.9876 4.55001 58.1709 4.42501 57.3709 4.42501C55.9542 4.42501 54.8876 4.68335 54.1709 5.20001C53.4709 5.71668 53.1209 6.38335 53.1209 7.20001C53.1209 7.80001 53.3209 8.29168 53.7209 8.67501C54.1209 9.04168 54.6126 9.33335 55.1959 9.55001C55.7959 9.75001 56.6042 9.96668 57.6209 10.2C58.9376 10.5167 59.9959 10.8333 60.7959 11.15C61.5959 11.4667 62.2792 11.95 62.8459 12.6C63.4292 13.25 63.7209 14.125 63.7209 15.225C63.7209 16.1417 63.4709 16.9833 62.9709 17.75C62.4709 18.5 61.7126 19.1 60.6959 19.55C59.6792 19.9833 58.4292 20.2 56.9459 20.2Z" fill="white"/>
<path d="M74.0982 6.62501C75.7816 6.62501 77.1149 7.11668 78.0982 8.10001C79.0982 9.06668 79.5982 10.4917 79.5982 12.375V20H77.1982V12.65C77.1982 11.3667 76.8899 10.4 76.2732 9.75001C75.6566 9.10001 74.7732 8.77501 73.6232 8.77501C72.3232 8.77501 71.2982 9.15835 70.5482 9.92501C69.7982 10.675 69.4232 11.7583 69.4232 13.175V20H67.0232V1.45001H69.4232V8.62501C69.9232 7.99168 70.5732 7.50001 71.3732 7.15001C72.1899 6.80001 73.0982 6.62501 74.0982 6.62501Z" fill="white"/>
<path d="M89.7881 20.15C88.4714 20.15 87.2881 19.8583 86.2381 19.275C85.1881 18.6917 84.3631 17.8917 83.7631 16.875C83.1798 15.8417 82.8881 14.675 82.8881 13.375C82.8881 12.075 83.1798 10.9167 83.7631 9.90001C84.3631 8.86668 85.1881 8.06668 86.2381 7.50001C87.2881 6.91668 88.4714 6.62501 89.7881 6.62501C91.1048 6.62501 92.2798 6.91668 93.3131 7.50001C94.3631 8.06668 95.1798 8.86668 95.7631 9.90001C96.3631 10.9167 96.6631 12.075 96.6631 13.375C96.6631 14.675 96.3631 15.8417 95.7631 16.875C95.1798 17.8917 94.3631 18.6917 93.3131 19.275C92.2798 19.8583 91.1048 20.15 89.7881 20.15ZM89.7881 18.05C90.6381 18.05 91.3964 17.8583 92.0631 17.475C92.7464 17.075 93.2798 16.525 93.6631 15.825C94.0464 15.1083 94.2381 14.2917 94.2381 13.375C94.2381 12.4583 94.0464 11.65 93.6631 10.95C93.2798 10.2333 92.7464 9.68335 92.0631 9.30001C91.3964 8.91668 90.6381 8.72501 89.7881 8.72501C88.9381 8.72501 88.1714 8.91668 87.4881 9.30001C86.8214 9.68335 86.2881 10.2333 85.8881 10.95C85.5048 11.65 85.3131 12.4583 85.3131 13.375C85.3131 14.2917 85.5048 15.1083 85.8881 15.825C86.2881 16.525 86.8214 17.075 87.4881 17.475C88.1714 17.8583 88.9381 18.05 89.7881 18.05Z" fill="white"/>
<path d="M102.282 8.97501C102.699 8.20835 103.316 7.62501 104.132 7.22501C104.949 6.82501 105.941 6.62501 107.107 6.62501V8.95001C106.974 8.93335 106.791 8.92501 106.557 8.92501C105.257 8.92501 104.232 9.31668 103.482 10.1C102.749 10.8667 102.382 11.9667 102.382 13.4V20H99.9822V6.75001H102.282V8.97501Z" fill="white"/>
<path d="M118.052 19.225C117.702 19.525 117.269 19.7583 116.752 19.925C116.236 20.075 115.702 20.15 115.152 20.15C113.819 20.15 112.786 19.7917 112.052 19.075C111.319 18.3583 110.952 17.3333 110.952 16V8.72501H108.702V6.75001H110.952V3.85001H113.352V6.75001H117.152V8.72501H113.352V15.9C113.352 16.6167 113.527 17.1667 113.877 17.55C114.244 17.9333 114.761 18.125 115.427 18.125C116.161 18.125 116.786 17.9167 117.302 17.5L118.052 19.225Z" fill="white"/>
<path d="M141.8 16.09C141.01 16.09 140.3 15.915 139.67 15.565C139.04 15.215 138.545 14.735 138.185 14.125C137.835 13.505 137.66 12.805 137.66 12.025C137.66 11.245 137.835 10.55 138.185 9.94002C138.545 9.32002 139.04 8.84002 139.67 8.50002C140.3 8.15002 141.01 7.97502 141.8 7.97502C142.59 7.97502 143.295 8.15002 143.915 8.50002C144.545 8.84002 145.035 9.32002 145.385 9.94002C145.745 10.55 145.925 11.245 145.925 12.025C145.925 12.805 145.745 13.505 145.385 14.125C145.035 14.735 144.545 15.215 143.915 15.565C143.295 15.915 142.59 16.09 141.8 16.09ZM141.8 14.83C142.31 14.83 142.765 14.715 143.165 14.485C143.575 14.245 143.895 13.915 144.125 13.495C144.355 13.065 144.47 12.575 144.47 12.025C144.47 11.475 144.355 10.99 144.125 10.57C143.895 10.14 143.575 9.81002 143.165 9.58002C142.765 9.35002 142.31 9.23502 141.8 9.23502C141.29 9.23502 140.83 9.35002 140.42 9.58002C140.02 9.81002 139.7 10.14 139.46 10.57C139.23 10.99 139.115 11.475 139.115 12.025C139.115 12.575 139.23 13.065 139.46 13.495C139.7 13.915 140.02 14.245 140.42 14.485C140.83 14.715 141.29 14.83 141.8 14.83Z" fill="white" fill-opacity="0.5"/>
<path d="M148.005 8.05002H149.445V11.425H153.975V8.05002H155.415V16H153.975V12.67H149.445V16H148.005V8.05002Z" fill="white" fill-opacity="0.5"/>
<path d="M165.039 8.05002V16H163.599V9.31002H160.179L160.089 11.08C160.039 12.15 159.944 13.045 159.804 13.765C159.664 14.475 159.434 15.045 159.114 15.475C158.794 15.905 158.349 16.12 157.779 16.12C157.519 16.12 157.224 16.075 156.894 15.985L156.984 14.77C157.114 14.8 157.234 14.815 157.344 14.815C157.744 14.815 158.044 14.64 158.244 14.29C158.444 13.94 158.574 13.525 158.634 13.045C158.694 12.565 158.749 11.88 158.799 10.99L158.934 8.05002H165.039Z" fill="white" fill-opacity="0.5"/>
<path d="M170.659 7.97502C171.759 7.97502 172.599 8.24502 173.179 8.78502C173.769 9.32502 174.064 10.13 174.064 11.2V16H172.699V14.95C172.459 15.32 172.114 15.605 171.664 15.805C171.224 15.995 170.699 16.09 170.089 16.09C169.199 16.09 168.484 15.875 167.944 15.445C167.414 15.015 167.149 14.45 167.149 13.75C167.149 13.05 167.404 12.49 167.914 12.07C168.424 11.64 169.234 11.425 170.344 11.425H172.624V11.14C172.624 10.52 172.444 10.045 172.084 9.71502C171.724 9.38502 171.194 9.22002 170.494 9.22002C170.024 9.22002 169.564 9.30002 169.114 9.46002C168.664 9.61002 168.284 9.81502 167.974 10.075L167.374 8.99502C167.784 8.66502 168.274 8.41502 168.844 8.24502C169.414 8.06502 170.019 7.97502 170.659 7.97502ZM170.329 14.98C170.879 14.98 171.354 14.86 171.754 14.62C172.154 14.37 172.444 14.02 172.624 13.57V12.46H170.404C169.184 12.46 168.574 12.87 168.574 13.69C168.574 14.09 168.729 14.405 169.039 14.635C169.349 14.865 169.779 14.98 170.329 14.98Z" fill="white" fill-opacity="0.5"/>
<path d="M176.657 8.05002H178.097V13.84L182.972 8.05002H184.277V16H182.837V10.21L177.977 16H176.657V8.05002ZM180.377 7.01502C179.637 7.01502 179.062 6.84002 178.652 6.49002C178.242 6.13002 178.032 5.61502 178.022 4.94502H178.997C179.007 5.31502 179.132 5.61502 179.372 5.84502C179.622 6.06502 179.952 6.17502 180.362 6.17502C180.772 6.17502 181.102 6.06502 181.352 5.84502C181.602 5.61502 181.732 5.31502 181.742 4.94502H182.747C182.737 5.61502 182.522 6.13002 182.102 6.49002C181.682 6.84002 181.107 7.01502 180.377 7.01502Z" fill="white" fill-opacity="0.5"/>
<path d="M187.072 8.05002H188.512V11.425H193.042V8.05002H194.482V16H193.042V12.67H188.512V16H187.072V8.05002Z" fill="white" fill-opacity="0.5"/>
<path d="M208.429 12.64H206.779V16H205.339V8.05002H206.779V11.41H208.459L211.039 8.05002H212.584L209.569 11.875L212.794 16H211.099L208.429 12.64Z" fill="white" fill-opacity="0.5"/>
<path d="M214.303 8.05002H215.743V16H214.303V8.05002ZM215.023 6.52002C214.743 6.52002 214.508 6.43002 214.318 6.25002C214.138 6.07002 214.048 5.85002 214.048 5.59002C214.048 5.33002 214.138 5.11002 214.318 4.93002C214.508 4.74002 214.743 4.64502 215.023 4.64502C215.303 4.64502 215.533 4.73502 215.713 4.91502C215.903 5.08502 215.998 5.30002 215.998 5.56002C215.998 5.83002 215.903 6.06002 215.713 6.25002C215.533 6.43002 215.303 6.52002 215.023 6.52002Z" fill="white" fill-opacity="0.5"/>
<path d="M218.551 8.05002H219.991V11.425H224.521V8.05002H225.961V16H224.521V12.67H219.991V16H218.551V8.05002Z" fill="white" fill-opacity="0.5"/>
<path d="M232.166 16.09C231.376 16.09 230.666 15.915 230.036 15.565C229.406 15.215 228.911 14.735 228.551 14.125C228.201 13.505 228.026 12.805 228.026 12.025C228.026 11.245 228.201 10.55 228.551 9.94002C228.911 9.32002 229.406 8.84002 230.036 8.50002C230.666 8.15002 231.376 7.97502 232.166 7.97502C232.956 7.97502 233.661 8.15002 234.281 8.50002C234.911 8.84002 235.401 9.32002 235.751 9.94002C236.111 10.55 236.291 11.245 236.291 12.025C236.291 12.805 236.111 13.505 235.751 14.125C235.401 14.735 234.911 15.215 234.281 15.565C233.661 15.915 232.956 16.09 232.166 16.09ZM232.166 14.83C232.676 14.83 233.131 14.715 233.531 14.485C233.941 14.245 234.261 13.915 234.491 13.495C234.721 13.065 234.836 12.575 234.836 12.025C234.836 11.475 234.721 10.99 234.491 10.57C234.261 10.14 233.941 9.81002 233.531 9.58002C233.131 9.35002 232.676 9.23502 232.166 9.23502C231.656 9.23502 231.196 9.35002 230.786 9.58002C230.386 9.81002 230.066 10.14 229.826 10.57C229.596 10.99 229.481 11.475 229.481 12.025C229.481 12.575 229.596 13.065 229.826 13.495C230.066 13.915 230.386 14.245 230.786 14.485C231.196 14.715 231.656 14.83 232.166 14.83Z" fill="white" fill-opacity="0.5"/>
<path d="M244.003 9.31002H241.093V16H239.653V9.31002H236.743V8.05002H244.003V9.31002Z" fill="white" fill-opacity="0.5"/>
<path d="M252.309 12.07C252.309 12.18 252.299 12.325 252.279 12.505H245.829C245.919 13.205 246.224 13.77 246.744 14.2C247.274 14.62 247.929 14.83 248.709 14.83C249.659 14.83 250.424 14.51 251.004 13.87L251.799 14.8C251.439 15.22 250.989 15.54 250.449 15.76C249.919 15.98 249.324 16.09 248.664 16.09C247.824 16.09 247.079 15.92 246.429 15.58C245.779 15.23 245.274 14.745 244.914 14.125C244.564 13.505 244.389 12.805 244.389 12.025C244.389 11.255 244.559 10.56 244.899 9.94002C245.249 9.32002 245.724 8.84002 246.324 8.50002C246.934 8.15002 247.619 7.97502 248.379 7.97502C249.139 7.97502 249.814 8.15002 250.404 8.50002C251.004 8.84002 251.469 9.32002 251.799 9.94002C252.139 10.56 252.309 11.27 252.309 12.07ZM248.379 9.19002C247.689 9.19002 247.109 9.40002 246.639 9.82002C246.179 10.24 245.909 10.79 245.829 11.47H250.929C250.849 10.8 250.574 10.255 250.104 9.83502C249.644 9.40502 249.069 9.19002 248.379 9.19002Z" fill="white" fill-opacity="0.5"/>
<path d="M257.158 7.97502C258.258 7.97502 259.098 8.24502 259.678 8.78502C260.268 9.32502 260.563 10.13 260.563 11.2V16H259.198V14.95C258.958 15.32 258.613 15.605 258.163 15.805C257.723 15.995 257.198 16.09 256.588 16.09C255.698 16.09 254.983 15.875 254.443 15.445C253.913 15.015 253.648 14.45 253.648 13.75C253.648 13.05 253.903 12.49 254.413 12.07C254.923 11.64 255.733 11.425 256.843 11.425H259.123V11.14C259.123 10.52 258.943 10.045 258.583 9.71502C258.223 9.38502 257.693 9.22002 256.993 9.22002C256.523 9.22002 256.063 9.30002 255.613 9.46002C255.163 9.61002 254.783 9.81502 254.473 10.075L253.873 8.99502C254.283 8.66502 254.773 8.41502 255.343 8.24502C255.913 8.06502 256.518 7.97502 257.158 7.97502ZM256.828 14.98C257.378 14.98 257.853 14.86 258.253 14.62C258.653 14.37 258.943 14.02 259.123 13.57V12.46H256.903C255.683 12.46 255.073 12.87 255.073 13.69C255.073 14.09 255.228 14.405 255.538 14.635C255.848 14.865 256.278 14.98 256.828 14.98Z" fill="white" fill-opacity="0.5"/>
<path d="M269.081 9.31002H266.171V16H264.731V9.31002H261.821V8.05002H269.081V9.31002Z" fill="white" fill-opacity="0.5"/>
<path d="M274.768 7.97502C275.538 7.97502 276.228 8.14502 276.838 8.48502C277.448 8.82502 277.923 9.30002 278.263 9.91002C278.613 10.52 278.788 11.225 278.788 12.025C278.788 12.825 278.613 13.535 278.263 14.155C277.923 14.765 277.448 15.24 276.838 15.58C276.228 15.92 275.538 16.09 274.768 16.09C274.198 16.09 273.673 15.98 273.193 15.76C272.723 15.54 272.323 15.22 271.993 14.8V18.91H270.553V8.05002H271.933V9.31002C272.253 8.87002 272.658 8.54002 273.148 8.32002C273.638 8.09002 274.178 7.97502 274.768 7.97502ZM274.648 14.83C275.158 14.83 275.613 14.715 276.013 14.485C276.423 14.245 276.743 13.915 276.973 13.495C277.213 13.065 277.333 12.575 277.333 12.025C277.333 11.475 277.213 10.99 276.973 10.57C276.743 10.14 276.423 9.81002 276.013 9.58002C275.613 9.35002 275.158 9.23502 274.648 9.23502C274.148 9.23502 273.693 9.35502 273.283 9.59502C272.883 9.82502 272.563 10.15 272.323 10.57C272.093 10.99 271.978 11.475 271.978 12.025C271.978 12.575 272.093 13.065 272.323 13.495C272.553 13.915 272.873 14.245 273.283 14.485C273.693 14.715 274.148 14.83 274.648 14.83Z" fill="white" fill-opacity="0.5"/>
<path fill-rule="evenodd" clip-rule="evenodd" d="M129 20L129 4L130 4L130 20L129 20Z" fill="white"/>
</svg>
